<svg xmlns="http://www.w3.org/2000/svg" width="24" height="24" viewBox="0 0 24 24"><path d="M7 17h10l-2.9-3.7-1.9 1.1c-.1.1-.3.1-.5 0l-1.9-1.1L7 17z"/><path d="M19.7.5H4.3C2.2.5.5 2.2.5 4.3v15.4c0 2.1 1.7 3.8 3.8 3.8h15.4c2.1 0 3.8-1.7 3.8-3.8V4.3c0-2.1-1.7-3.8-3.8-3.8zm-.5 17c0 .3-.2.5-.5.5H5.3c-.3 0-.5-.2-.5-.5v-7.3c0-.2.1-.3.2-.4.1-.1.3-.1.5 0l6.4 3.7 6.4-3.7c.1-.1.3-.1.5 0 .1.1.2.2.2.4v7.3zm0-9.3c0 .3-.2.5-.5.5s-.5-.2-.5-.5V7H5.8v1.2c0 .3-.2.5-.5.5s-.5-.2-.5-.5V6.5c0-.3.2-.5.5-.5h13.4c.3 0 .5.2.5.5v1.7z"/></svg>