<svg xmlns="http://www.w3.org/2000/svg" width="24" height="24" viewBox="0 0 24 24"><path d="M19.7 23.5H4.3c-2.1 0-3.8-1.7-3.8-3.8V4.3C.5 2.2 2.2.5 4.3.5h15.3c2.1 0 3.8 1.7 3.8 3.8v15.3c.1 2.2-1.6 3.9-3.7 3.9zM4.3 1.5c-1.6 0-2.8 1.3-2.8 2.8v15.3c0 1.6 1.3 2.8 2.8 2.8h15.3c1.6 0 2.8-1.3 2.8-2.8V4.3c0-1.6-1.3-2.8-2.8-2.8H4.3z"/><path d="M9.5 17.9c-1.6 0-3.1-.4-4.5-1.3-.2-.1-.3-.4-.2-.6.1-.2.3-.4.5-.3.9.1 1.9 0 2.7-.4-.8-.4-1.5-1.1-1.7-1.9-.1-.2 0-.3.1-.5-.7-.6-1.1-1.5-1.1-2.4 0-.2.1-.4.2-.4 0 0 .1 0 .1-.1-.1-.5-.2-1-.2-1.5 0-.6.2-1.1.4-1.6.1-.2.2-.3.4-.3s.3.1.4.2c1.2 1.4 2.9 2.4 4.7 2.6v-.1c0-1.8 1.5-3.2 3.2-3.2.8 0 1.6.3 2.2.8.5-.1.9-.3 1.3-.5.2-.1.4-.1.6 0 .2.1.2.3.2.5 0 .1-.1.3-.2.4.2 0 .3 0 .5.2.1.2.2.4 0 .6-.4.5-.8 1-1.3 1.4v.1c0 4.1-3.1 8.3-8.3 8.3zm-2.2-1.4c.7.2 1.4.3 2.2.3 4.6 0 7.3-3.7 7.3-7.2v-.3c0-.2.1-.3.2-.4 0 0 .1 0 .1-.1-.2 0-.4-.1-.5-.3-.1-.2 0-.4.1-.5h-.1c-.2 0-.3 0-.5-.1-.4-.4-1-.7-1.6-.7-1.2 0-2.2 1-2.2 2.2 0 .2 0 .3.1.5 0 .2 0 .3-.1.4s-.3.2-.4.2c-2.1-.1-4-1-5.5-2.4v.4c0 .7.4 1.4 1 1.8.2.1.3.4.2.6-.1.2-.3.4-.5.3-.2 0-.4 0-.6-.1.3.7.9 1.3 1.7 1.4.2 0 .4.2.4.5 0 .2-.1.4-.4.5-.2 0-.3.1-.5.1.4.5 1 .8 1.7.8.2 0 .4.1.5.3s0 .4-.2.6c-.7.7-1.5 1-2.4 1.2z"/></svg>